<?xml version="1.0" standalone="no"?>
<!DOCTYPE svg PUBLIC "-//W3C//DTD SVG 20010904//EN"
 "http://www.w3.org/TR/2001/REC-SVG-20010904/DTD/svg10.dtd">
<svg version="1.0" xmlns="http://www.w3.org/2000/svg"
 width="1800.000000pt" height="1200.000000pt" viewBox="0 0 1800.000000 1200.000000"
 preserveAspectRatio="xMidYMid meet">

<g transform="translate(0.000000,1200.000000) scale(0.100000,-0.100000)"
fill="#273E9B" stroke="none">
<path d="M2540 9800 c0 -71 258 -509 459 -780 191 -257 487 -567 721 -753 429
-342 807 -529 1345 -665 203 -52 362 -82 915 -177 245 -42 575 -99 735 -126
380 -66 466 -89 632 -171 161 -80 316 -213 416 -355 47 -68 77 -91 77 -60 0 7
-47 154 -104 328 -144 437 -231 615 -374 758 -74 74 -188 149 -272 180 -99 36
-360 107 -685 186 -1025 248 -1286 319 -1670 453 -826 288 -1540 678 -2099
1145 -72 60 -96 70 -96 37z"/>
<path d="M15445 9811 c-11 -5 -40 -26 -65 -48 -341 -294 -835 -603 -1345 -841
-591 -276 -1217 -475 -2275 -722 -577 -135 -794 -197 -954 -274 -206 -99 -332
-302 -496 -801 -39 -121 -83 -251 -97 -290 -30 -83 -40 -135 -24 -135 5 0 36
35 67 78 150 203 346 341 609 427 144 47 225 63 870 170 975 162 1202 209
1519 316 835 281 1542 893 2069 1790 64 109 143 270 153 312 6 28 2 31 -31 18z"/>
<path d="M7200 8420 c0 -6 29 -44 65 -83 140 -155 259 -337 363 -557 86 -180
140 -322 267 -700 138 -409 153 -450 216 -592 96 -216 187 -355 311 -474 138
-133 285 -210 492 -258 87 -21 98 -6 28 37 -127 78 -201 199 -256 412 -9 34
-41 187 -72 340 -111 555 -205 851 -353 1103 -124 212 -331 418 -564 561 -190
116 -497 247 -497 211z"/>
<path d="M10740 8411 c-67 -21 -307 -136 -393 -187 -303 -182 -520 -417 -662
-718 -115 -243 -184 -480 -285 -986 -28 -140 -58 -282 -66 -315 -54 -212 -130
-334 -256 -412 -70 -43 -59 -58 28 -37 378 87 611 300 803 732 63 142 78 183
216 592 62 184 134 389 160 455 134 339 300 621 477 811 82 87 79 98 -22 65z"/>
<path d="M14243 7415 c-431 -212 -832 -345 -1333 -439 -457 -86 -794 -112
-1710 -136 -571 -15 -665 -26 -795 -92 -159 -81 -256 -193 -447 -517 -44 -75
-93 -155 -109 -178 -16 -23 -32 -57 -36 -75 l-6 -33 54 50 c153 144 325 214
579 237 101 9 181 8 420 -5 729 -42 1335 -46 1545 -13 555 89 1089 355 1537
764 34 31 68 62 75 67 8 6 77 78 155 160 139 148 214 243 206 265 -2 6 -59
-17 -135 -55z"/>
<path d="M3646 7462 c-12 -11 -4 -24 85 -129 372 -439 816 -764 1309 -962 387
-154 640 -189 1305 -178 193 3 467 13 610 22 355 23 720 17 820 -13 141 -42
242 -97 359 -196 36 -31 68 -56 71 -56 21 0 -11 66 -111 233 -220 362 -306
470 -450 560 -106 66 -264 85 -814 97 -855 19 -1245 49 -1690 130 -494 90
-879 212 -1270 402 -170 82 -214 100 -224 90z"/>
<path d="M7695 6003 c-16 -2 -230 -44 -475 -93 -595 -119 -780 -145 -1110
-156 -267 -9 -506 13 -847 79 -158 30 -162 21 -33 -74 99 -74 200 -134 348
-208 299 -150 554 -218 857 -228 267 -9 431 22 1061 201 422 120 512 135 655
116 73 -10 142 -29 202 -55 30 -13 19 8 -56 100 -120 148 -263 254 -395 295
-62 19 -159 30 -207 23z"/>
<path d="M10150 5999 c-30 -5 -89 -26 -130 -46 -67 -32 -94 -56 -247 -212
-180 -184 -192 -206 -84 -157 107 48 173 59 316 53 144 -6 125 -2 620 -142
565 -161 612 -169 905 -169 153 1 220 6 310 22 225 41 406 104 630 218 170 86
410 248 410 276 0 14 -63 8 -175 -16 -272 -61 -578 -84 -878 -67 -330 19 -523
48 -1120 171 -384 79 -447 86 -557 69z"/>
<path d="M9606 5329 c-19 -16 -54 -60 -77 -97 -70 -110 -187 -320 -182 -326 3
-2 26 10 51 29 58 41 121 59 181 50 30 -4 143 -54 326 -145 163 -82 307 -147
345 -157 84 -21 227 -21 309 1 137 35 295 139 437 287 71 74 164 193 164 210
0 15 -28 10 -115 -20 -127 -45 -220 -61 -357 -61 -210 0 -351 32 -681 154
-187 68 -308 106 -345 106 -12 0 -37 -14 -56 -31z"/>
<path d="M8075 5274 c-368 -139 -524 -177 -730 -177 -135 0 -241 18 -369 64
-82 29 -116 35 -116 21 0 -15 90 -132 157 -203 205 -217 434 -331 633 -315
111 9 204 45 478 181 136 68 269 129 295 136 61 15 128 6 184 -25 23 -14 43
-20 43 -15 0 15 -109 218 -155 289 -64 99 -84 114 -158 117 -56 3 -80 -4 -262
-73z"/>
<path d="M3930 4244 c-242 -65 -373 -271 -356 -559 12 -200 84 -329 228 -405
60 -32 178 -60 254 -60 111 0 280 55 304 99 15 28 13 148 -2 153 -7 3 -47 -11
-88 -31 -63 -30 -88 -37 -155 -39 -105 -5 -156 10 -211 60 -68 63 -88 125 -89
278 0 116 2 129 28 185 56 119 119 160 247 160 80 0 90 -2 170 -43 78 -40 85
-42 97 -26 18 25 17 125 -3 152 -52 75 -277 115 -424 76z"/>
<path d="M5158 4245 c-181 -46 -296 -160 -343 -341 -20 -77 -20 -264 0 -352
53 -231 240 -347 530 -329 239 16 379 118 451 327 15 44 19 84 19 205 0 131
-3 159 -23 217 -46 132 -127 216 -252 259 -84 28 -294 36 -382 14z m299 -182
c46 -24 98 -89 115 -146 8 -25 13 -96 13 -177 0 -131 -1 -137 -32 -202 -52
-110 -136 -155 -276 -146 -185 12 -255 122 -245 379 4 90 10 125 28 166 24 55
82 117 128 134 77 30 202 26 269 -8z"/>
<path d="M7057 4239 l-28 -11 3 -349 c2 -192 2 -349 1 -349 -1 0 -28 48 -59
108 -62 116 -258 458 -305 533 -16 25 -40 51 -54 57 -15 7 -73 12 -134 12 -91
0 -110 -3 -124 -18 -15 -16 -17 -68 -17 -492 -1 -318 3 -477 10 -484 12 -12
135 -15 163 -4 16 7 17 35 17 390 l1 383 28 -60 c26 -55 122 -227 301 -536
102 -176 98 -173 224 -177 160 -6 146 -55 146 514 0 334 -3 475 -11 480 -20
12 -133 14 -162 3z"/>
<path d="M8075 4240 l-259 -5 -13 -25 c-19 -38 -19 -943 1 -959 18 -15 132
-21 173 -10 21 6 35 17 38 32 3 12 5 100 3 195 l-3 172 172 0 c197 0 193 -2
193 89 0 79 -4 81 -198 81 l-167 0 2 132 3 133 182 3 c130 2 184 6 190 15 10
15 10 118 0 133 -12 18 -44 19 -317 14z"/>
<path d="M8933 4240 l-23 -9 0 -490 0 -490 42 -12 c38 -10 129 -6 165 8 11 4
13 94 13 494 l0 489 -26 10 c-31 12 -141 12 -171 0z"/>
<path d="M9743 4242 c-53 -8 -53 -10 -53 -504 0 -445 1 -459 20 -478 19 -19
33 -20 218 -20 225 1 316 13 414 58 148 67 225 182 249 374 26 207 -46 394
-185 483 -105 67 -155 77 -411 84 -126 3 -240 5 -252 3z m415 -172 c88 -23
167 -101 194 -194 18 -61 15 -211 -5 -277 -22 -73 -80 -139 -149 -169 -42 -19
-76 -24 -170 -28 l-118 -4 0 340 c0 263 3 342 13 346 16 7 194 -4 235 -14z"/>
<path d="M13005 4243 c-11 -3 -24 -9 -28 -13 -5 -4 -9 -165 -9 -356 l0 -349
-19 35 c-11 19 -58 105 -105 190 -174 315 -258 452 -289 471 -24 15 -51 19
-137 19 -163 0 -148 54 -148 -515 0 -543 -11 -490 101 -490 109 0 102 -30 97
401 l-3 371 55 -106 c57 -109 279 -498 332 -584 42 -66 68 -77 181 -77 78 0
97 3 110 18 15 17 17 66 17 495 0 461 -1 477 -19 487 -20 10 -98 12 -136 3z"/>
<path d="M13660 4241 c-14 -1 -28 -8 -32 -15 -12 -18 -9 -121 4 -134 8 -8 56
-12 150 -12 l138 0 0 -409 c0 -319 3 -411 13 -419 19 -16 106 -24 157 -15 l45
9 5 414 5 415 142 3 c133 2 143 4 154 24 10 19 9 122 -2 132 -5 5 -745 12
-779 7z"/>
<path d="M11116 4218 c-14 -20 -16 -81 -16 -473 0 -343 3 -456 13 -475 l13
-25 302 -3 c344 -3 317 -10 316 86 0 35 -5 57 -15 63 -7 5 -103 9 -211 9
l-198 0 0 140 0 140 168 0 c117 0 172 4 180 12 7 7 12 37 12 68 0 31 -5 61
-12 68 -8 8 -63 12 -180 12 l-168 0 0 119 c0 91 3 120 14 124 7 3 98 6 202 7
135 0 190 4 196 13 9 14 11 99 2 121 -5 14 -42 16 -305 16 -296 0 -298 0 -313
-22z"/>
<path d="M6896 2887 c-16 -12 -12 -33 68 -317 47 -167 90 -308 95 -313 5 -5
43 -10 85 -10 56 -2 79 2 89 13 8 8 36 101 62 205 26 105 51 196 55 204 4 7
21 -38 39 -105 18 -66 45 -162 59 -214 l27 -94 44 -9 c51 -10 125 -2 139 16
12 15 172 579 172 606 0 21 -19 31 -58 31 -70 0 -65 9 -132 -267 -34 -140 -63
-253 -65 -251 -2 2 -33 113 -69 248 -43 159 -72 249 -83 258 -20 14 -81 16
-115 3 -21 -8 -30 -35 -88 -260 -43 -167 -67 -246 -72 -234 -4 10 -33 122 -63
248 -37 154 -61 234 -72 243 -22 16 -94 16 -117 -1z"/>
<path d="M8222 2890 l-22 -9 2 -313 3 -312 30 -8 c16 -4 47 -5 67 -1 l38 6 0
317 0 318 -31 6 c-40 8 -59 7 -87 -4z"/>
<path d="M9238 2893 l-28 -4 0 -227 0 -227 -81 145 c-181 325 -168 310 -270
310 -68 0 -80 -3 -89 -20 -7 -12 -9 -123 -8 -316 l3 -298 30 -8 c17 -4 45 -5
63 -2 l32 6 0 242 1 241 20 -40 c50 -98 226 -399 246 -421 19 -21 31 -24 92
-24 59 0 72 3 81 19 6 12 10 131 10 316 l0 295 -26 10 c-14 6 -31 9 -37 9 -7
-1 -24 -4 -39 -6z"/>
<path d="M9934 2880 c-76 -25 -153 -93 -186 -165 -18 -41 -23 -68 -23 -150 0
-90 3 -106 28 -157 31 -63 76 -106 147 -139 81 -39 298 -37 386 3 l24 11 -2
161 -3 161 -140 0 -140 0 0 -40 0 -40 73 -3 72 -3 0 -78 c0 -91 0 -91 -91 -91
-125 0 -187 52 -210 174 -19 103 22 200 104 246 61 35 168 34 256 -3 36 -14
68 -24 73 -21 4 3 8 28 8 55 0 50 0 50 -47 72 -70 31 -243 35 -329 7z"/>
<path d="M10805 2881 c-47 -21 -92 -70 -101 -109 -3 -15 -8 -33 -10 -41 -2 -7
1 -32 7 -55 16 -58 78 -114 167 -150 88 -36 122 -65 122 -104 0 -80 -119 -107
-233 -52 -54 26 -65 25 -73 -6 -19 -75 42 -117 179 -122 67 -3 100 0 135 13
125 47 179 181 111 279 -27 40 -62 62 -162 106 -106 45 -135 92 -86 141 18 18
30 21 83 17 33 -2 78 -12 98 -22 20 -10 42 -15 47 -11 17 10 13 82 -4 99 -40
39 -209 50 -280 17z"/>
</g>
</svg>
