<?xml version="1.0" standalone="no"?>
<!DOCTYPE svg PUBLIC "-//W3C//DTD SVG 20010904//EN"
 "http://www.w3.org/TR/2001/REC-SVG-20010904/DTD/svg10.dtd">
<svg version="1.0" xmlns="http://www.w3.org/2000/svg"
 width="1800.000000pt" height="1200.000000pt" viewBox="0 0 1800.000000 1200.000000"
 preserveAspectRatio="xMidYMid meet">

<g transform="translate(0.000000,1200.000000) scale(0.100000,-0.100000)"
fill="#273E9B" stroke="none">
<path d="M2560 9040 c0 -71 258 -509 459 -780 191 -257 487 -567 721 -753 429
-342 807 -529 1345 -665 203 -52 362 -82 915 -177 245 -42 575 -99 735 -126
380 -66 466 -89 632 -171 161 -80 316 -213 416 -355 47 -68 77 -91 77 -60 0 7
-47 154 -104 328 -144 437 -231 615 -374 758 -74 74 -188 149 -272 180 -99 36
-360 107 -685 186 -1025 248 -1286 319 -1670 453 -826 288 -1540 678 -2099
1145 -72 60 -96 70 -96 37z"/>
<path d="M15465 9051 c-11 -5 -40 -26 -65 -48 -341 -294 -835 -603 -1345 -841
-591 -276 -1217 -475 -2275 -722 -577 -135 -794 -197 -954 -274 -206 -99 -332
-302 -496 -801 -39 -121 -83 -251 -97 -290 -30 -83 -40 -135 -24 -135 5 0 36
35 67 78 150 203 346 341 609 427 144 47 225 63 870 170 975 162 1202 209
1519 316 835 281 1542 893 2069 1790 64 109 143 270 153 312 6 28 2 31 -31 18z"/>
<path d="M7220 7660 c0 -6 29 -44 65 -83 140 -155 259 -337 363 -557 86 -180
140 -322 267 -700 138 -409 153 -450 216 -592 96 -216 187 -355 311 -474 138
-133 285 -210 492 -258 87 -21 98 -6 28 37 -127 78 -201 199 -256 412 -9 34
-41 187 -72 340 -111 555 -205 851 -353 1103 -124 212 -331 418 -564 561 -190
116 -497 247 -497 211z"/>
<path d="M10760 7651 c-67 -21 -307 -136 -393 -187 -303 -182 -520 -417 -662
-718 -115 -243 -184 -480 -285 -986 -28 -140 -58 -282 -66 -315 -54 -212 -130
-334 -256 -412 -70 -43 -59 -58 28 -37 378 87 611 300 803 732 63 142 78 183
216 592 62 184 134 389 160 455 134 339 300 621 477 811 82 87 79 98 -22 65z"/>
<path d="M14263 6655 c-431 -212 -832 -345 -1333 -439 -457 -86 -794 -112
-1710 -136 -571 -15 -665 -26 -795 -92 -159 -81 -256 -193 -447 -517 -44 -75
-93 -155 -109 -178 -16 -23 -32 -57 -36 -75 l-6 -33 54 50 c153 144 325 214
579 237 101 9 181 8 420 -5 729 -42 1335 -46 1545 -13 555 89 1089 355 1537
764 34 31 68 62 75 67 8 6 77 78 155 160 139 148 214 243 206 265 -2 6 -59
-17 -135 -55z"/>
<path d="M3666 6702 c-12 -11 -4 -24 85 -129 372 -439 816 -764 1309 -962 387
-154 640 -189 1305 -178 193 3 467 13 610 22 355 23 720 17 820 -13 141 -42
242 -97 359 -196 36 -31 68 -56 71 -56 21 0 -11 66 -111 233 -220 362 -306
470 -450 560 -106 66 -264 85 -814 97 -855 19 -1245 49 -1690 130 -494 90
-879 212 -1270 402 -170 82 -214 100 -224 90z"/>
<path d="M7715 5243 c-16 -2 -230 -44 -475 -93 -595 -119 -780 -145 -1110
-156 -267 -9 -506 13 -847 79 -158 30 -162 21 -33 -74 99 -74 200 -134 348
-208 299 -150 554 -218 857 -228 267 -9 431 22 1061 201 422 120 512 135 655
116 73 -10 142 -29 202 -55 30 -13 19 8 -56 100 -120 148 -263 254 -395 295
-62 19 -159 30 -207 23z"/>
<path d="M10170 5239 c-30 -5 -89 -26 -130 -46 -67 -32 -94 -56 -247 -212
-180 -184 -192 -206 -84 -157 107 48 173 59 316 53 144 -6 125 -2 620 -142
565 -161 612 -169 905 -169 153 1 220 6 310 22 225 41 406 104 630 218 170 86
410 248 410 276 0 14 -63 8 -175 -16 -272 -61 -578 -84 -878 -67 -330 19 -523
48 -1120 171 -384 79 -447 86 -557 69z"/>
<path d="M9626 4569 c-19 -16 -54 -60 -77 -97 -70 -110 -187 -320 -182 -326 3
-2 26 10 51 29 58 41 121 59 181 50 30 -4 143 -54 326 -145 163 -82 307 -147
345 -157 84 -21 227 -21 309 1 137 35 295 139 437 287 71 74 164 193 164 210
0 15 -28 10 -115 -20 -127 -45 -220 -61 -357 -61 -210 0 -351 32 -681 154
-187 68 -308 106 -345 106 -12 0 -37 -14 -56 -31z"/>
<path d="M8095 4514 c-368 -139 -524 -177 -730 -177 -135 0 -241 18 -369 64
-82 29 -116 35 -116 21 0 -15 90 -132 157 -203 205 -217 434 -331 633 -315
111 9 204 45 478 181 136 68 269 129 295 136 61 15 128 6 184 -25 23 -14 43
-20 43 -15 0 15 -109 218 -155 289 -64 99 -84 114 -158 117 -56 3 -80 -4 -262
-73z"/>
</g>
</svg>
